<svg width="90" height="90" viewBox="0 0 90 90" fill="none" xmlns="http://www.w3.org/2000/svg">
<circle cx="45" cy="45" r="45" fill="#4BC561"/>
<path d="M39.0665 30.4851C38.601 31.0472 38.0522 31.4775 37.4199 31.7761C36.7876 32.0659 36.0806 32.2108 35.299 32.2108C34.5965 32.2108 33.9422 32.0834 33.3363 31.8288C32.7391 31.5741 32.221 31.2272 31.7819 30.7881C31.3428 30.349 30.9959 29.8309 30.7412 29.2337C30.4866 28.6278 30.3592 27.9779 30.3592 27.2841C30.3592 26.5904 30.4866 25.9449 30.7412 25.3477C30.9959 24.7418 31.3428 24.2193 31.7819 23.7802C32.221 23.3411 32.7391 22.9942 33.3363 22.7395C33.9422 22.4848 34.5965 22.3575 35.299 22.3575C36.0543 22.3575 36.7173 22.4892 37.2881 22.7527C37.8677 23.0161 38.3815 23.3981 38.8294 23.8987L37.5779 25.1106C37.2969 24.7857 36.972 24.5266 36.6031 24.3334C36.2431 24.1402 35.8128 24.0436 35.3122 24.0436C34.8731 24.0436 34.4604 24.1226 34.074 24.2807C33.6876 24.43 33.3495 24.6452 33.0597 24.9262C32.7786 25.2072 32.5547 25.5497 32.3878 25.9537C32.221 26.3489 32.1376 26.7923 32.1376 27.2841C32.1376 27.7759 32.221 28.2238 32.3878 28.6278C32.5547 29.0229 32.7786 29.361 33.0597 29.6421C33.3495 29.9231 33.6876 30.1426 34.074 30.3007C34.4604 30.45 34.8731 30.5246 35.3122 30.5246C35.8391 30.5246 36.3046 30.4193 36.7085 30.2085C37.1213 29.9889 37.4857 29.6816 37.8019 29.2864L39.0665 30.4851ZM40.1547 32V22.5683H41.8803V32H40.1547ZM44.3194 24.61C44.1701 24.61 44.0252 24.5837 43.8847 24.531C43.753 24.4695 43.6345 24.3905 43.5291 24.2939C43.4325 24.1885 43.3534 24.07 43.292 23.9382C43.2393 23.8065 43.2129 23.6616 43.2129 23.5035C43.2129 23.3455 43.2393 23.2006 43.292 23.0688C43.3534 22.9371 43.4325 22.8229 43.5291 22.7263C43.6345 22.6209 43.753 22.5419 43.8847 22.4892C44.0252 22.4277 44.1701 22.397 44.3194 22.397C44.6268 22.397 44.8903 22.5068 45.1098 22.7263C45.3294 22.9371 45.4391 23.1962 45.4391 23.5035C45.4391 23.8109 45.3294 24.0743 45.1098 24.2939C44.8903 24.5047 44.6268 24.61 44.3194 24.61ZM43.4632 32V25.5453H45.1888V32H43.4632ZM52.8279 30.3534C52.5468 30.8979 52.1516 31.3457 51.6423 31.697C51.1417 32.0395 50.5138 32.2108 49.7586 32.2108C49.258 32.2108 48.797 32.1273 48.3754 31.9605C47.9627 31.7848 47.6026 31.5433 47.2953 31.236C46.9967 30.9286 46.7596 30.5686 46.5839 30.1558C46.4171 29.7343 46.3336 29.2732 46.3336 28.7727C46.3336 28.2721 46.4171 27.811 46.5839 27.3895C46.7596 26.968 46.9967 26.6079 47.2953 26.3093C47.6026 26.002 47.9627 25.7649 48.3754 25.598C48.797 25.4224 49.258 25.3345 49.7586 25.3345C50.505 25.3345 51.1329 25.5058 51.6423 25.8483C52.1516 26.1908 52.5249 26.6343 52.762 27.1787L51.1812 27.8374C51.032 27.5388 50.8388 27.3149 50.6016 27.1656C50.3733 27.0075 50.0835 26.9285 49.7322 26.9285C49.5039 26.9285 49.2888 26.9724 49.0868 27.0602C48.8848 27.148 48.7048 27.271 48.5467 27.429C48.3974 27.5871 48.2788 27.7803 48.191 28.0086C48.1032 28.237 48.0593 28.4916 48.0593 28.7727C48.0593 29.0537 48.1032 29.3084 48.191 29.5367C48.2788 29.765 48.3974 29.9582 48.5467 30.1163C48.7048 30.2744 48.8848 30.3973 49.0868 30.4851C49.2888 30.5729 49.5039 30.6169 49.7322 30.6169C50.0923 30.6169 50.3953 30.5378 50.6412 30.3797C50.8958 30.2129 51.0978 29.9758 51.2471 29.6684L52.8279 30.3534ZM53.8806 22.5683H55.6063V27.7057H55.6853L57.8457 25.5453H59.9797V25.6507L57.5822 27.9823L60.1773 31.8946V32H58.1355L56.3703 29.1678L55.6063 29.9187V32H53.8806V22.5683ZM19.0947 40.5683H25.0751V42.2544H20.873V44.5464H24.6536V46.2326H20.873V50H19.0947V40.5683ZM28.8866 43.3345C29.3872 43.3345 29.8438 43.4224 30.2566 43.598C30.6781 43.7649 31.0382 44.002 31.3367 44.3093C31.6441 44.6079 31.8812 44.968 32.0481 45.3895C32.2237 45.811 32.3115 46.2721 32.3115 46.7727C32.3115 47.2732 32.2237 47.7343 32.0481 48.1558C31.8812 48.5773 31.6441 48.9418 31.3367 49.2491C31.0382 49.5477 30.6781 49.7848 30.2566 49.9605C29.8438 50.1273 29.3872 50.2108 28.8866 50.2108C28.386 50.2108 27.925 50.1273 27.5035 49.9605C27.0907 49.7848 26.7306 49.5477 26.4233 49.2491C26.1247 48.9418 25.8876 48.5773 25.7119 48.1558C25.5451 47.7343 25.4617 47.2732 25.4617 46.7727C25.4617 46.2721 25.5451 45.811 25.7119 45.3895C25.8876 44.968 26.1247 44.6079 26.4233 44.3093C26.7306 44.002 27.0907 43.7649 27.5035 43.598C27.925 43.4224 28.386 43.3345 28.8866 43.3345ZM28.8866 48.6169C29.1061 48.6169 29.3169 48.5773 29.5189 48.4983C29.7297 48.4105 29.9141 48.2875 30.0722 48.1295C30.2302 47.9714 30.3532 47.7782 30.441 47.5499C30.5376 47.3215 30.5859 47.0625 30.5859 46.7727C30.5859 46.4829 30.5376 46.2238 30.441 45.9955C30.3532 45.7671 30.2302 45.5739 30.0722 45.4159C29.9141 45.2578 29.7297 45.1392 29.5189 45.0602C29.3169 44.9724 29.1061 44.9285 28.8866 44.9285C28.6583 44.9285 28.4431 44.9724 28.2411 45.0602C28.0391 45.1392 27.8591 45.2578 27.701 45.4159C27.543 45.5739 27.4156 45.7671 27.319 45.9955C27.2312 46.2238 27.1873 46.4829 27.1873 46.7727C27.1873 47.0625 27.2312 47.3215 27.319 47.5499C27.4156 47.7782 27.543 47.9714 27.701 48.1295C27.8591 48.2875 28.0391 48.4105 28.2411 48.4983C28.4431 48.5773 28.6583 48.6169 28.8866 48.6169ZM33.2917 43.5453H34.9119V44.4411H35.0173C35.0964 44.283 35.2017 44.1381 35.3335 44.0064C35.4652 43.8746 35.6101 43.7605 35.7682 43.6639C35.935 43.5673 36.1107 43.4926 36.2951 43.4399C36.4883 43.3872 36.6771 43.3609 36.8615 43.3609C37.0898 43.3609 37.283 43.3828 37.4411 43.4268C37.608 43.4707 37.7485 43.5278 37.8626 43.598L37.4016 45.1656C37.2962 45.1129 37.1777 45.0734 37.0459 45.047C36.923 45.0119 36.7693 44.9943 36.5849 44.9943C36.3478 44.9943 36.1326 45.0426 35.9394 45.1392C35.7462 45.227 35.5794 45.3544 35.4388 45.5212C35.3071 45.6881 35.2017 45.8857 35.1227 46.114C35.0524 46.3336 35.0173 46.5751 35.0173 46.8385V50H33.2917V43.5453ZM41.7612 40.5683H43.5132L46.398 45.5608H46.5034L49.3883 40.5683H51.1534V50H49.3883V45.35L49.4936 43.7693H49.3883L46.9908 47.9977H45.9238L43.5132 43.7693H43.4078L43.5132 45.35V50H41.7612V40.5683ZM55.9012 43.3345C56.4017 43.3345 56.8584 43.4224 57.2712 43.598C57.6927 43.7649 58.0527 44.002 58.3513 44.3093C58.6587 44.6079 58.8958 44.968 59.0627 45.3895C59.2383 45.811 59.3261 46.2721 59.3261 46.7727C59.3261 47.2732 59.2383 47.7343 59.0627 48.1558C58.8958 48.5773 58.6587 48.9418 58.3513 49.2491C58.0527 49.5477 57.6927 49.7848 57.2712 49.9605C56.8584 50.1273 56.4017 50.2108 55.9012 50.2108C55.4006 50.2108 54.9396 50.1273 54.518 49.9605C54.1053 49.7848 53.7452 49.5477 53.4379 49.2491C53.1393 48.9418 52.9022 48.5773 52.7265 48.1558C52.5597 47.7343 52.4762 47.2732 52.4762 46.7727C52.4762 46.2721 52.5597 45.811 52.7265 45.3895C52.9022 44.968 53.1393 44.6079 53.4379 44.3093C53.7452 44.002 54.1053 43.7649 54.518 43.598C54.9396 43.4224 55.4006 43.3345 55.9012 43.3345ZM55.9012 48.6169C56.1207 48.6169 56.3315 48.5773 56.5335 48.4983C56.7442 48.4105 56.9287 48.2875 57.0867 48.1295C57.2448 47.9714 57.3678 47.7782 57.4556 47.5499C57.5522 47.3215 57.6005 47.0625 57.6005 46.7727C57.6005 46.4829 57.5522 46.2238 57.4556 45.9955C57.3678 45.7671 57.2448 45.5739 57.0867 45.4159C56.9287 45.2578 56.7442 45.1392 56.5335 45.0602C56.3315 44.9724 56.1207 44.9285 55.9012 44.9285C55.6729 44.9285 55.4577 44.9724 55.2557 45.0602C55.0537 45.1392 54.8737 45.2578 54.7156 45.4159C54.5576 45.5739 54.4302 45.7671 54.3336 45.9955C54.2458 46.2238 54.2019 46.4829 54.2019 46.7727C54.2019 47.0625 54.2458 47.3215 54.3336 47.5499C54.4302 47.7782 54.5576 47.9714 54.7156 48.1295C54.8737 48.2875 55.0537 48.4105 55.2557 48.4983C55.4577 48.5773 55.6729 48.6169 55.9012 48.6169ZM60.3063 43.5453H61.9265V44.4411H62.0319C62.1109 44.283 62.2163 44.1381 62.348 44.0064C62.4798 43.8746 62.6247 43.7605 62.7828 43.6639C62.9496 43.5673 63.1252 43.4926 63.3097 43.4399C63.5029 43.3872 63.6917 43.3609 63.8761 43.3609C64.1044 43.3609 64.2976 43.3828 64.4557 43.4268C64.6226 43.4707 64.7631 43.5278 64.8772 43.598L64.4162 45.1656C64.3108 45.1129 64.1922 45.0734 64.0605 45.047C63.9376 45.0119 63.7839 44.9943 63.5995 44.9943C63.3624 44.9943 63.1472 45.0426 62.954 45.1392C62.7608 45.227 62.5939 45.3544 62.4534 45.5212C62.3217 45.6881 62.2163 45.8857 62.1373 46.114C62.067 46.3336 62.0319 46.5751 62.0319 46.8385V50H60.3063V43.5453ZM71.384 48.4456C71.0854 48.9725 70.6814 49.3984 70.1721 49.7234C69.6715 50.0483 69.0568 50.2108 68.3279 50.2108C67.8361 50.2108 67.3794 50.1273 66.9579 49.9605C66.5452 49.7848 66.1851 49.5433 65.8777 49.236C65.5704 48.9286 65.3289 48.5686 65.1532 48.1558C64.9864 47.7343 64.903 47.2732 64.903 46.7727C64.903 46.3072 64.9864 45.8681 65.1532 45.4554C65.3201 45.0338 65.5528 44.6694 65.8514 44.362C66.15 44.0459 66.5013 43.7956 66.9052 43.6112C67.318 43.4268 67.7702 43.3345 68.262 43.3345C68.7802 43.3345 69.2412 43.4224 69.6452 43.598C70.0491 43.7649 70.3872 44.002 70.6595 44.3093C70.9317 44.6079 71.1381 44.9636 71.2786 45.3763C71.4191 45.7891 71.4894 46.237 71.4894 46.72C71.4894 46.7814 71.4894 46.8341 71.4894 46.878C71.4806 46.9307 71.4762 46.979 71.4762 47.0229C71.4674 47.0669 71.463 47.1152 71.463 47.1678H66.6023C66.6374 47.4313 66.7076 47.6596 66.813 47.8528C66.9272 48.0372 67.0633 48.1953 67.2214 48.3271C67.3882 48.45 67.5683 48.5422 67.7615 48.6037C67.9547 48.6564 68.1523 48.6827 68.3542 48.6827C68.7494 48.6827 69.0744 48.5949 69.329 48.4193C69.5925 48.2348 69.7989 48.0065 69.9482 47.7343L71.384 48.4456ZM69.8164 45.9428C69.8076 45.8286 69.7681 45.7013 69.6979 45.5608C69.6364 45.4202 69.5398 45.2885 69.4081 45.1656C69.2851 45.0426 69.127 44.9416 68.9338 44.8626C68.7494 44.7836 68.5255 44.744 68.262 44.744C67.8932 44.744 67.5683 44.8494 67.2872 45.0602C67.0062 45.271 66.8086 45.5651 66.6945 45.9428H69.8164ZM25.1858 58.5683H28.3736C29.1201 58.5683 29.7919 58.6824 30.3891 58.9107C30.9862 59.1391 31.4956 59.464 31.9171 59.8855C32.3386 60.2983 32.6592 60.7945 32.8787 61.3741C33.1071 61.9537 33.2212 62.5904 33.2212 63.2841C33.2212 63.9867 33.1071 64.6278 32.8787 65.2074C32.6592 65.787 32.3386 66.2831 31.9171 66.6959C31.4956 67.1086 30.9862 67.4292 30.3891 67.6575C29.7919 67.8858 29.1201 68 28.3736 68H25.1858V58.5683ZM28.2946 66.3139C28.8127 66.3139 29.2694 66.2436 29.6646 66.1031C30.0597 65.9538 30.3891 65.7474 30.6525 65.484C30.916 65.2205 31.1136 64.9044 31.2453 64.5355C31.377 64.1579 31.4429 63.7408 31.4429 63.2841C31.4429 62.8275 31.377 62.4147 31.2453 62.0459C31.1136 61.6683 30.916 61.3477 30.6525 61.0843C30.3891 60.8208 30.0597 60.6188 29.6646 60.4783C29.2694 60.329 28.8127 60.2544 28.2946 60.2544H26.9641V66.3139H28.2946ZM40.3622 66.4456C40.0637 66.9725 39.6597 67.3984 39.1503 67.7234C38.6498 68.0483 38.035 68.2108 37.3061 68.2108C36.8144 68.2108 36.3577 68.1273 35.9362 67.9605C35.5234 67.7848 35.1634 67.5433 34.856 67.236C34.5486 66.9286 34.3071 66.5686 34.1315 66.1558C33.9646 65.7343 33.8812 65.2732 33.8812 64.7727C33.8812 64.3072 33.9646 63.8681 34.1315 63.4554C34.2983 63.0338 34.5311 62.6694 34.8297 62.362C35.1282 62.0459 35.4795 61.7956 35.8835 61.6112C36.2962 61.4268 36.7485 61.3345 37.2403 61.3345C37.7584 61.3345 38.2195 61.4224 38.6234 61.598C39.0274 61.7649 39.3655 62.002 39.6377 62.3093C39.91 62.6079 40.1163 62.9636 40.2569 63.3763C40.3974 63.7891 40.4676 64.237 40.4676 64.72C40.4676 64.7814 40.4676 64.8341 40.4676 64.878C40.4588 64.9307 40.4544 64.979 40.4544 65.0229C40.4457 65.0669 40.4413 65.1152 40.4413 65.1678H35.5805C35.6156 65.4313 35.6859 65.6596 35.7913 65.8528C35.9054 66.0372 36.0416 66.1953 36.1996 66.3271C36.3665 66.45 36.5465 66.5422 36.7397 66.6037C36.9329 66.6564 37.1305 66.6827 37.3325 66.6827C37.7277 66.6827 38.0526 66.5949 38.3073 66.4193C38.5707 66.2348 38.7771 66.0065 38.9264 65.7343L40.3622 66.4456ZM38.7947 63.9428C38.7859 63.8286 38.7464 63.7013 38.6761 63.5608C38.6146 63.4202 38.518 63.2885 38.3863 63.1656C38.2634 63.0426 38.1053 62.9416 37.9121 62.8626C37.7277 62.7836 37.5037 62.744 37.2403 62.744C36.8714 62.744 36.5465 62.8494 36.2655 63.0602C35.9845 63.271 35.7869 63.5651 35.6727 63.9428H38.7947ZM42.0881 63.0207H40.9552V61.5453H42.0881V59.5694H43.8137V61.5453H45.3945V63.0207H43.8137V65.5235C43.8137 65.6728 43.8269 65.8133 43.8532 65.945C43.8884 66.068 43.9498 66.1734 44.0377 66.2612C44.1606 66.4017 44.3362 66.472 44.5646 66.472C44.7139 66.472 44.8324 66.4588 44.9202 66.4324C45.0081 66.3973 45.0915 66.3534 45.1705 66.3007L45.6579 67.8156C45.4559 67.9122 45.2364 67.9824 44.9993 68.0263C44.771 68.079 44.5163 68.1054 44.2353 68.1054C43.9103 68.1054 43.6161 68.0571 43.3527 67.9605C43.098 67.8551 42.8828 67.7146 42.7072 67.539C42.2945 67.1438 42.0881 66.5817 42.0881 65.8528V63.0207ZM50.5134 67.315H50.4081C50.2061 67.5609 49.9602 67.7717 49.6704 67.9473C49.3894 68.1229 49.0249 68.2108 48.577 68.2108C48.2433 68.2108 47.9272 68.1537 47.6286 68.0395C47.3388 67.9341 47.0841 67.7848 46.8646 67.5916C46.645 67.3984 46.4738 67.1657 46.3508 66.8935C46.2279 66.6212 46.1664 66.3227 46.1664 65.9977C46.1664 65.664 46.2323 65.3654 46.364 65.102C46.4957 64.8297 46.6802 64.597 46.9173 64.4038C47.1544 64.2106 47.431 64.0657 47.7472 63.9691C48.0721 63.8637 48.4234 63.811 48.801 63.811C49.2225 63.811 49.5694 63.8462 49.8416 63.9164C50.1139 63.9779 50.3378 64.0438 50.5134 64.114V63.9164C50.5134 63.5739 50.3773 63.2929 50.1051 63.0734C49.8328 62.845 49.4947 62.7309 49.0908 62.7309C48.4936 62.7309 47.9887 62.9812 47.5759 63.4817L46.3245 62.6255C47.0095 61.7649 47.9447 61.3345 49.1303 61.3345C50.1314 61.3345 50.8955 61.5717 51.4224 62.0459C51.9493 62.5113 52.2127 63.2051 52.2127 64.1272V68H50.5134V67.315ZM50.5134 65.3786C50.3115 65.282 50.1007 65.2074 49.8811 65.1547C49.6704 65.0932 49.4377 65.0625 49.183 65.0625C48.7702 65.0625 48.4497 65.1547 48.2214 65.3391C48.0018 65.5147 47.8921 65.7343 47.8921 65.9977C47.8921 66.2612 47.9974 66.472 48.2082 66.63C48.4277 66.7881 48.678 66.8671 48.9591 66.8671C49.1874 66.8671 49.3981 66.8276 49.5913 66.7486C49.7845 66.6608 49.947 66.551 50.0787 66.4193C50.2193 66.2788 50.3246 66.1207 50.3949 65.945C50.4739 65.7606 50.5134 65.5718 50.5134 65.3786ZM54.5464 60.61C54.3971 60.61 54.2522 60.5837 54.1117 60.531C53.98 60.4695 53.8614 60.3905 53.756 60.2939C53.6594 60.1885 53.5804 60.07 53.5189 59.9382C53.4662 59.8065 53.4399 59.6616 53.4399 59.5035C53.4399 59.3455 53.4662 59.2006 53.5189 59.0688C53.5804 58.9371 53.6594 58.8229 53.756 58.7263C53.8614 58.6209 53.98 58.5419 54.1117 58.4892C54.2522 58.4277 54.3971 58.397 54.5464 58.397C54.8538 58.397 55.1172 58.5068 55.3368 58.7263C55.5563 58.9371 55.6661 59.1962 55.6661 59.5035C55.6661 59.8109 55.5563 60.0743 55.3368 60.2939C55.1172 60.5047 54.8538 60.61 54.5464 60.61ZM53.6902 68V61.5453H55.4158V68H53.6902ZM56.9938 68V58.5683H58.7194V68H56.9938ZM62.6881 68.2108C62.2666 68.2108 61.889 68.1581 61.5553 68.0527C61.2303 67.9473 60.9449 67.8112 60.699 67.6443C60.4619 67.4687 60.2599 67.2711 60.0931 67.0516C59.9262 66.8232 59.7989 66.5949 59.7111 66.3666L61.2523 65.7079C61.4016 66.0416 61.5992 66.2919 61.8451 66.4588C62.0997 66.6169 62.3808 66.6959 62.6881 66.6959C63.0043 66.6959 63.2546 66.6388 63.439 66.5246C63.6234 66.4105 63.7156 66.2744 63.7156 66.1163C63.7156 65.9406 63.6366 65.8001 63.4785 65.6948C63.3292 65.5806 63.0657 65.4796 62.6881 65.3918L61.7792 65.1942C61.5772 65.1503 61.3664 65.08 61.1469 64.9834C60.9361 64.8868 60.7429 64.7639 60.5673 64.6146C60.3917 64.4653 60.2468 64.2853 60.1326 64.0745C60.0184 63.8637 59.9613 63.6178 59.9613 63.3368C59.9613 63.0207 60.0272 62.7397 60.1589 62.4938C60.2994 62.2479 60.4883 62.0415 60.7254 61.8746C60.9625 61.699 61.2391 61.5673 61.5553 61.4795C61.8802 61.3828 62.2271 61.3345 62.5959 61.3345C63.2106 61.3345 63.7595 61.4575 64.2425 61.7034C64.7255 61.9405 65.0812 62.3225 65.3095 62.8494L63.821 63.4554C63.698 63.2007 63.518 63.0163 63.2809 62.9021C63.0438 62.788 62.8067 62.7309 62.5696 62.7309C62.3237 62.7309 62.1085 62.7836 61.9241 62.8889C61.7397 62.9855 61.6475 63.1129 61.6475 63.271C61.6475 63.4202 61.7221 63.5388 61.8714 63.6266C62.0295 63.7144 62.2402 63.7935 62.5037 63.8637L63.4917 64.1008C64.1503 64.2589 64.6377 64.5136 64.9538 64.8649C65.2788 65.2074 65.4412 65.6157 65.4412 66.0899C65.4412 66.371 65.3754 66.6388 65.2436 66.8935C65.1119 67.1482 64.9231 67.3765 64.6772 67.5785C64.4401 67.7717 64.1503 67.9254 63.8078 68.0395C63.4741 68.1537 63.1009 68.2108 62.6881 68.2108Z" fill="#323232"/>
</svg>
