<svg width="51" height="25" viewBox="0 0 51 25" fill="none" xmlns="http://www.w3.org/2000/svg">
<g opacity="0.79" clip-path="url(#clip0_612_23888)">
<path d="M12.0617 12.3715L20.2951 7.59673C21.2248 7.05696 21.9032 6.1679 22.1811 5.12512C22.4589 4.08234 22.3135 2.97126 21.7768 2.03631C21.24 1.10137 20.356 0.41914 19.319 0.139707C18.2821 -0.139726 17.1773 0.00652628 16.2476 0.546295L2.03516 8.79887L12.0617 12.3715Z" fill="#DB3236"/>
<path d="M18.2578 24.6482C19.1474 24.6462 20.0115 24.3498 20.7168 23.8047C21.4221 23.2596 21.9293 22.4961 22.1601 21.6321C22.3908 20.7682 22.3323 19.8519 21.9936 19.0247C21.6548 18.1976 21.0547 17.5056 20.2858 17.0557L6.07336 8.80312C5.61302 8.53585 5.10485 8.36239 4.57785 8.29263C4.05085 8.22286 3.51535 8.25817 3.00192 8.39653C2.48849 8.53489 2.00718 8.7736 1.58548 9.09902C1.16378 9.42444 0.80996 9.8302 0.544196 10.2931C0.278432 10.7561 0.105942 11.2671 0.0365715 11.7971C-0.0327993 12.3271 0.00231016 12.8656 0.139893 13.3819C0.277477 13.8983 0.514839 14.3823 0.83843 14.8064C1.16202 15.2305 1.5655 15.5863 2.02584 15.8536L16.2383 24.1061C16.8526 24.4618 17.549 24.6487 18.2578 24.6482Z" fill="#4885ED"/>
<path d="M32.3963 24.6481C33.1055 24.6474 33.802 24.459 34.4159 24.1019L48.6283 15.8493L38.7214 12.2007L30.3684 17.0514C29.5995 17.5013 28.9994 18.1933 28.6606 19.0204C28.3219 19.8476 28.2633 20.7639 28.4941 21.6278C28.7249 22.4918 29.2321 23.2553 29.9374 23.8004C30.6426 24.3455 31.5068 24.6419 32.3963 24.6439V24.6481Z" fill="#F4C20D"/>
<path d="M46.6029 16.404C47.4932 16.4034 48.3584 16.1076 49.0645 15.5624C49.7707 15.0173 50.2784 14.2532 50.5091 13.3886C50.7398 12.5239 50.6806 11.6069 50.3407 10.7794C50.0008 9.95201 49.3991 9.26037 48.6288 8.81159L34.4164 0.55902C33.4916 0.0684703 32.4139 -0.0431698 31.4091 0.247482C30.4043 0.538133 29.5504 1.20853 29.0261 2.11823C28.5018 3.02794 28.348 4.10637 28.5967 5.12763C28.8454 6.14889 29.4775 7.03373 30.3605 7.5968L44.575 15.8494C45.1903 16.2114 45.8901 16.4029 46.6029 16.404Z" fill="#3CBA54"/>
</g>
<defs>
<clipPath id="clip0_612_23888">
<rect width="50.6527" height="24.6459" fill="white"/>
</clipPath>
</defs>
</svg>
