<svg width="51" height="25" viewBox="0 0 51 25" fill="none" xmlns="http://www.w3.org/2000/svg">
<path d="M12.0597 12.3706L20.2932 7.59575C21.2229 7.05598 21.9013 6.16692 22.1791 5.12414C22.457 4.08136 22.3116 2.97028 21.7748 2.03534C21.2381 1.10039 20.354 0.418163 19.3171 0.13873C18.2802 -0.140702 17.1754 0.00554972 16.2457 0.545318L2.0332 8.79789L12.0597 12.3706Z" fill="#DB3236"/>
<path d="M18.2559 24.6472C19.1454 24.6452 20.0096 24.3488 20.7149 23.8037C21.4202 23.2586 21.9274 22.4951 22.1581 21.6311C22.3889 20.7672 22.3304 19.8509 21.9916 19.0238C21.6528 18.1966 21.0527 17.5046 20.2839 17.0547L6.0714 8.80214C5.61107 8.53488 5.10289 8.36141 4.5759 8.29165C4.0489 8.22189 3.5134 8.2572 2.99997 8.39556C2.48654 8.53392 2.00522 8.77262 1.58353 9.09804C1.16183 9.42346 0.808007 9.82923 0.542243 10.2922C0.276479 10.7551 0.103989 11.2662 0.0346184 11.7961C-0.0347524 12.3261 0.000357039 12.8646 0.13794 13.381C0.275524 13.8973 0.512886 14.3813 0.836477 14.8054C1.16007 15.2295 1.56355 15.5853 2.02389 15.8526L16.2363 24.1052C16.8506 24.4608 17.5471 24.6477 18.2559 24.6472Z" fill="#4885ED"/>
<path d="M32.3944 24.6471C33.1036 24.6464 33.8001 24.458 34.4139 24.1009L48.6264 15.8483L38.7194 12.1997L30.3664 17.0504C29.5976 17.5003 28.9974 18.1923 28.6587 19.0195C28.3199 19.8466 28.2614 20.7629 28.4922 21.6269C28.7229 22.4908 29.2301 23.2543 29.9354 23.7994C30.6407 24.3445 31.5048 24.641 32.3944 24.6429V24.6471Z" fill="#F4C20D"/>
<path d="M46.601 16.4031C47.4912 16.4024 48.3564 16.1066 49.0625 15.5614C49.7687 15.0163 50.2764 14.2522 50.5072 13.3876C50.7379 12.5229 50.6787 11.6059 50.3388 10.7785C49.9988 9.95103 49.3972 9.25939 48.6269 8.81062L34.4144 0.558043C33.4896 0.0674937 32.412 -0.0441464 31.4072 0.246505C30.4024 0.537157 29.5484 1.20755 29.0241 2.11726C28.4999 3.02696 28.346 4.1054 28.5947 5.12665C28.8435 6.14791 29.4755 7.03275 30.3585 7.59582L44.5731 15.8484C45.1883 16.2105 45.8881 16.4019 46.601 16.4031Z" fill="#3CBA54"/>
</svg>
